<?xml version="1.0" encoding="utf-8"?>
<!-- Generator: Adobe Illustrator 18.1.1, SVG Export Plug-In . SVG Version: 6.00 Build 0)  -->
<svg version="1.1"
	 id="Layer_1" xmlns:rdf="http://www.w3.org/1999/02/22-rdf-syntax-ns#" xmlns:cc="http://web.resource.org/cc/" xmlns:inkscape="http://www.inkscape.org/namespaces/inkscape" xmlns:sodipodi="http://sodipodi.sourceforge.net/DTD/sodipodi-0.dtd" xmlns:dc="http://purl.org/dc/elements/1.1/" xmlns:ns1="http://sozi.baierouge.fr"
	 xmlns="http://www.w3.org/2000/svg" xmlns:xlink="http://www.w3.org/1999/xlink" x="0px" y="0px" viewBox="0 0 960 560"
	 enable-background="new 0 0 960 560" xml:space="preserve">
<g>
	<path fill="#FFFFFF" d="M620.7,303.7c9-53.1-12.8-108.9-60.3-141s-107.5-31.3-153.3-3.1c-81.9-39.2-147.7-51.3-164.9-25.8
		c-21.4,31.8,39.3,111.3,139.8,188.3c0.2,0.1,0.3,0.2,0.5,0.4c3.3,2.5,6.7,5.1,10.1,7.6c0.5,0.3,0.9,0.7,1.4,1.1
		c3.1,2.3,6.2,4.5,9.3,6.8c0.8,0.6,1.6,1.2,2.5,1.8c3,2.1,6,4.2,9,6.3c1,0.7,2,1.4,3,2.1c4,2.8,8,5.5,12.1,8.3
		c4.1,2.8,8.2,5.5,12.3,8.1c0.8,0.5,1.6,1,2.4,1.5c3.3,2.2,6.6,4.3,9.9,6.4c0.7,0.4,1.3,0.8,2,1.2c3.5,2.2,6.9,4.3,10.4,6.4
		c0.4,0.3,0.9,0.5,1.3,0.8c3.7,2.2,7.4,4.4,11,6.6c0.2,0.1,0.3,0.2,0.5,0.3c109.1,64.3,205.6,90.7,227,58.9
		C723.7,421.4,687.8,364.9,620.7,303.7L620.7,303.7z M318.4,176.1c6.7-9.9,29.8-7.3,62.1,4.8c-6,6.1-11.5,12.7-16.4,20.1
		c-7,10.4-12.4,21.3-16.3,32.6C323.3,207.4,311.6,186.2,318.4,176.1L318.4,176.1z M638.8,392.1c-6.8,10.1-30.9,7.2-64.3-5.7
		c9-7.9,17.1-17,24.1-27.3c4.9-7.3,9-14.9,12.4-22.7C634.4,361.7,645.5,382.2,638.8,392.1z"/>
	<path fill="#FFFFFF" d="M341.4,300.2c5.5,38.1,26.5,73.8,60.9,97c34.4,23.2,75.4,29.2,112.8,20.1c-28.9-15-59.4-33-90.1-53.7
		C394.3,342.9,366.2,321.4,341.4,300.2L341.4,300.2z"/>
</g>
</svg>
